Exact Audio Copy V0.99 prebeta 4 from 23. January 2008

EAC 抓取日志文件从22. 九月 2011, 0:28

张权 / 20世纪中华歌坛名人百集珍藏版

使用驱动器  ：TEAC    CD-W54E   Adapter: 3  ID: 0

读取模式     : 保护
使用精确流   : 是
废除音频缓冲 : 否
使用 C2 指针 : 是

组合读/写偏移校正              : 0
读取 Lead-In 和 Lead-Out       : 否
用静音填充抓取中丢失偏移的采样 : 是
去除首尾静音块                 : 否
在 CRC 计算中使用了空样本      : 否
已用接口                       : Win NT 及 2000 本地 Win32 接口

所用输出格式 : 内部 WAV 函数
样本格式     : 44.100 Hz;16 Bit;立体声


被抓轨 CD 的 TOC

     音轨 |   开始   |   长度   | 起始扇区 | 结尾扇区 
    --------------------------------------------------
       1  |  0:00.00 |  2:39.27 |       0  |   11951  
       2  |  2:39.27 |  3:07.23 |   11952  |   25999  
       3  |  5:46.50 |  2:28.40 |   26000  |   37139  
       4  |  8:15.15 |  3:19.07 |   37140  |   52071  
       5  | 11:34.22 |  4:47.28 |   52072  |   73624  
       6  | 16:21.50 |  2:32.57 |   73625  |   85081  
       7  | 18:54.32 |  2:47.43 |   85082  |   97649  
       8  | 21:42.00 |  3:27.67 |   97650  |  113241  
       9  | 25:09.67 |  1:45.13 |  113242  |  121129  
      10  | 26:55.05 |  3:36.27 |  121130  |  137356  
      11  | 30:31.32 |  3:32.63 |  137357  |  153319  
      12  | 34:04.20 |  4:26.67 |  153320  |  173336  
      13  | 38:31.12 |  3:23.25 |  173337  |  188586  
      14  | 41:54.37 |  2:59.35 |  188587  |  202046  
      15  | 44:53.72 |  2:29.40 |  202047  |  213261  
      16  | 47:23.37 |  4:26.10 |  213262  |  233221  
      17  | 51:49.47 |  8:49.60 |  233222  |  272956  


范围状态及错误

已选择范围

     文件名 D:\张权 - 20世纪中华歌坛名人百集珍藏版.wav

     峰值电平 97.5 %
     范围质量 100.0 %
     复制 CRC A82AB5D4
     复制成功

没有错误发生

状态报告结尾
